<?xml version="1.0" encoding="UTF-8"?>
<svg xmlns="http://www.w3.org/2000/svg" width="804.637" height="296.382" viewBox="0 0 804.637 296.382">
  <rect width="804.637" height="296.382" fill="#111"/>
  <g id="a" data-name="Layer 1">
    <g>
      <path d="M19.624,18.313h83.091v68.281h75.884V18.313h83.091v259.295h-83.091v-116.251h-75.884v116.251H19.624V18.313Z" fill="#fff"/>
      <path d="M411.766,286.252c-65.286,0-112.767-43.217-112.767-101.99l.424-165.949h82.667v158.602c0,18.151,12.718,31.548,29.675,31.548s29.251-13.396,29.251-31.548V18.313h82.667l.424,165.949c0,58.773-47.48,101.99-112.343,101.99Z" fill="lime"/>
      <path d="M561.417,18.313h192.467v99.829h29.675v159.467h-222.142V18.313ZM678.847,118.141v-32.844h-36.882v32.844h36.882ZM708.522,210.624v-31.116h-66.558v31.116h66.558Z" fill="#fff"/>
    </g>
  </g>
</svg>